# xmcd
#
# Track frame offsets:
#	150
#	9159
#	26397
#	47760
#	70389
#	92014
#	104902
#	125813
#	144321
#	174726
#
# Disc length: 2469 seconds
#
# Revision: 1
# Processed by: cddbd v1.5.2PL0 Copyright (c) Steve Scherf et al.
# Submitted via: audiograbber 1.83.01
#
DISCID=8809a30a
DTITLE=Dulyasith Srabua And Banglumpoo Blues Company - Dulyasith Srabua And Ban
DTITLE=glumpoo Blues Company
DYEAR=2018
DGENRE=Blues
TTITLE0=Rung Arun Intro
TTITLE1=hang Nai Tee Jai Yoo
TTITLE2=Sao Noi
TTITLE3=Choo
TTITLE4=Ha Gun Che
TTITLE5=Prung Nee Tam Ngan Chow
TTITLE6=John
TTITLE7=Leng Nok Tha
TTITLE8=Look Kuen Soo
TTITLE9=Rung Arun Outro
EXTD=PKd0r
EXTT0=
EXTT1=
EXTT2=
EXTT3=
EXTT4=
EXTT5=
EXTT6=
EXTT7=
EXTT8=
EXTT9=
PLAYORDER=
